<svg id="outline" height="512" viewBox="0 0 512 512" width="512" xmlns="http://www.w3.org/2000/svg"><path d="m459.15234 16a36.77411 36.77411 0 0 0 -24.78613 9.582l-167.74805 152.49808a8.00113 8.00113 0 0 0 -.27539 11.57715l8.00489 8.00488-132.7959 63.51074a322.706 322.706 0 0 0 -76.68653 51.28615l-15.70023 14.12987a100.32964 100.32964 0 0 0 -33.165 74.46679 94.36882 94.36882 0 0 0 14.04639 49.64527c.12036.258.22509.52075.34912.77759l.105-.05079a95.68784 95.68784 0 0 0 30.07178 30.07178l-.05079.105c.25684.124.51954.22876.77759.34912a94.86279 94.86279 0 0 0 112.72144-9.93506 321.23132 321.23132 0 0 0 76.57322-101.60157l63.73242-132.77637 8.0166 8.01661a8.001 8.001 0 0 0 5.65723 2.34276c.06348 0 .127-.001.19043-.00195a8.00515 8.00515 0 0 0 5.72949-2.61621l152.49708-167.74805a36.84713 36.84713 0 0 0 -27.26466-61.63379zm-369.39453 455.97119a35.42075 35.42075 0 0 0 4.53125-4.44775l167.17188-197.02344-29.65235 48.71484a741.15594 741.15594 0 0 1 -108.89746 138.55957 48.21875 48.21875 0 0 1 -33.15332 14.19678zm-49.7251-49.73364a58.93161 58.93161 0 0 1 21.23487-44.21411l31.4209-26.18457a742.9004 742.9004 0 0 1 84.27246-60.73926l61.89111-38.31348-194.37451 164.92387a35.43349 35.43349 0 0 0 -4.44483 4.52755zm19.83545-83.7561 15.7002-14.12989a306.73469 306.73469 0 0 1 72.88574-48.74511l101.73438-48.65528-81.64942 50.54492a758.80463 758.80463 0 0 0 -86.09277 62.05176l-31.4209 26.18457a75.11325 75.11325 0 0 0 -17.93286 21.84522 84.32339 84.32339 0 0 1 26.77563-49.09619zm-11.86816 110.15478v-3.978a19.30565 19.30565 0 0 1 6.82812-14.748l179.9292-152.66748-152.66845 179.9301a19.30447 19.30447 0 0 1 -14.74707 6.82715h-3.978a79.62367 79.62367 0 0 1 -15.3638-15.36377zm188.16992-85.14307a305.32073 305.32073 0 0 1 -72.77832 96.56641 78.8487 78.8487 0 0 1 -42.53784 19.30273 64.89571 64.89571 0 0 0 13.37183-10.27343 757.252 757.252 0 0 0 111.251-141.55567l37.62158-61.80737zm91.55469-135.083-44.13477-44.13477 21.67041-19.70039 42.16455 42.1645zm146.85351-161.54-116.37744 128.01607-41.08691-41.08691 128.01611-116.37842a20.847 20.847 0 0 1 29.44824 29.44922z"/><circle cx="456" cy="56" r="8"/></svg>